<svg width="303" height="119" viewBox="0 0 303 119" fill="none" xmlns="http://www.w3.org/2000/svg">
<path d="M46.63 82.29L45.46 81.84V116.04H72.48V88.87L71.73 88.77C63.42 87.71 54.97 85.53 46.62 82.29H46.63Z" fill="black"/>
<path d="M131.04 76.97C123.36 81.22 115.36 84.44 107.27 86.54L106.63 86.71V116.05H133.65V75.56L132.39 76.25C131.93 76.5 131.48 76.75 131.04 76.99V76.97Z" fill="black"/>
<path d="M287.27 80.91L286.69 81.35C278.65 87.52 268.88 90.77 258.98 90.89C264.93 81.52 268.11 70.65 268.11 59.26C268.11 26.58 241.52 0 208.85 0C184.38 0 162.87 14.99 153.96 36.94C147.29 37.69 140.48 39.39 133.65 42.04V1.63H106.63V54.25C95.5 57.86 84.1 58.79 72.49 57.04V1.63H45.47V48.29C45.15 48.13 44.84 47.99 44.52 47.83C32.43 41.73 22.78 34.08 16.82 28.73L16.26 28.22L0 42.38L0.7 43.03C7.76 49.58 19.32 59 34.25 66.62C67.36 83.54 101.12 83.49 131.87 66.48C144.08 59.72 167.67 50.82 188.43 67.21C193.63 71.32 197.87 76.47 202.35 81.92C209.83 91.02 218.32 101.34 232.41 107.16C240.63 110.56 249.34 112.28 258.31 112.28C274.49 112.28 290.1 106.61 302.25 96.31L302.98 95.69L287.28 80.91H287.27ZM201.68 50.4C194.67 44.87 186.97 40.98 178.81 38.75C185.48 29.05 196.69 22.85 208.85 22.85C228.92 22.85 245.25 39.18 245.25 59.25C245.25 68.82 241.56 77.78 235.09 84.48C228.88 80.48 224.15 74.74 218.86 68.3C213.86 62.21 208.68 55.92 201.68 50.39V50.4Z" fill="black"/>
<path d="M201.52 94.91C188.06 92.14 177.12 81.81 173.64 68.46C164.38 65.9 155.42 67.31 150.35 68.6C152.51 82.26 159.44 94.79 169.93 103.94C180.71 113.35 194.54 118.53 208.86 118.53C215.29 118.53 221.65 117.49 227.75 115.44L227.91 115.39C215.84 110.23 206.04 100.14 201.52 94.92V94.91Z" fill="black"/>
</svg>
